<svg width="114" height="15" viewBox="0 0 114 15" fill="none" xmlns="http://www.w3.org/2000/svg">
<path d="M0.359477 1.112H4.71548C5.73548 1.112 6.65348 1.268 7.46948 1.58C8.28548 1.892 8.98148 2.336 9.55748 2.912C10.1335 3.476 10.5715 4.154 10.8715 4.946C11.1835 5.738 11.3395 6.608 11.3395 7.556C11.3395 8.516 11.1835 9.392 10.8715 10.184C10.5715 10.976 10.1335 11.654 9.55748 12.218C8.98148 12.782 8.28548 13.22 7.46948 13.532C6.65348 13.844 5.73548 14 4.71548 14H0.359477V1.112ZM4.60748 11.696C5.31548 11.696 5.93948 11.6 6.47948 11.408C7.01948 11.204 7.46948 10.922 7.82948 10.562C8.18948 10.202 8.45948 9.77 8.63948 9.266C8.81948 8.75 8.90948 8.18 8.90948 7.556C8.90948 6.932 8.81948 6.368 8.63948 5.864C8.45948 5.348 8.18948 4.91 7.82948 4.55C7.46948 4.19 7.01948 3.914 6.47948 3.722C5.93948 3.518 5.31548 3.416 4.60748 3.416H2.78948V11.696H4.60748ZM18.013 14.288C17.257 14.288 16.567 14.168 15.943 13.928C15.331 13.676 14.809 13.316 14.377 12.848C13.945 12.38 13.609 11.816 13.369 11.156C13.129 10.484 13.009 9.722 13.009 8.87V1.112H15.439V9.014C15.439 9.446 15.493 9.842 15.601 10.202C15.709 10.562 15.871 10.874 16.087 11.138C16.303 11.402 16.573 11.612 16.897 11.768C17.221 11.912 17.593 11.984 18.013 11.984C18.445 11.984 18.823 11.912 19.147 11.768C19.471 11.612 19.741 11.402 19.957 11.138C20.173 10.874 20.335 10.562 20.443 10.202C20.551 9.842 20.605 9.446 20.605 9.014V1.112H23.035V8.87C23.035 9.674 22.915 10.412 22.675 11.084C22.447 11.744 22.111 12.314 21.667 12.794C21.235 13.262 20.707 13.628 20.083 13.892C19.471 14.156 18.781 14.288 18.013 14.288ZM25.338 1.112H27.732L31.674 7.934H31.818L35.76 1.112H38.172V14H35.76V7.646L35.904 5.486H35.76L32.484 11.264H31.026L27.732 5.486H27.588L27.732 7.646V14H25.338V1.112ZM40.7716 1.112H45.8116C46.3636 1.112 46.8796 1.202 47.3596 1.382C47.8396 1.55 48.2536 1.79 48.6016 2.102C48.9616 2.402 49.2436 2.756 49.4476 3.164C49.6516 3.572 49.7536 4.01 49.7536 4.478C49.7536 5.162 49.5856 5.738 49.2496 6.206C48.9256 6.662 48.5176 7.01 48.0256 7.25V7.394C48.6856 7.634 49.2136 8.012 49.6096 8.528C50.0176 9.032 50.2216 9.662 50.2216 10.418C50.2216 10.97 50.1076 11.468 49.8796 11.912C49.6636 12.344 49.3636 12.716 48.9796 13.028C48.5956 13.34 48.1456 13.58 47.6296 13.748C47.1256 13.916 46.5796 14 45.9916 14H40.7716V1.112ZM45.6316 6.368C46.1956 6.368 46.6276 6.218 46.9276 5.918C47.2396 5.606 47.3956 5.24 47.3956 4.82C47.3956 4.4 47.2456 4.04 46.9456 3.74C46.6456 3.44 46.2316 3.29 45.7036 3.29H43.2016V6.368H45.6316ZM45.9016 11.768C46.5136 11.768 46.9816 11.618 47.3056 11.318C47.6296 11.006 47.7916 10.61 47.7916 10.13C47.7916 9.65 47.6236 9.254 47.2876 8.942C46.9636 8.618 46.4776 8.456 45.8296 8.456H43.2016V11.768H45.9016Z" fill="#EE4622"/>
<path d="M56.0339 14.288C55.4819 14.288 54.9539 14.21 54.4499 14.054C53.9459 13.898 53.4839 13.664 53.0639 13.352C52.6439 13.04 52.2779 12.662 51.9659 12.218C51.6539 11.762 51.4079 11.234 51.2279 10.634L53.5139 9.734C53.6819 10.382 53.9759 10.922 54.3959 11.354C54.8159 11.774 55.3679 11.984 56.0519 11.984C56.3039 11.984 56.5439 11.954 56.7719 11.894C57.0119 11.822 57.2219 11.726 57.4019 11.606C57.5939 11.474 57.7439 11.312 57.8519 11.12C57.9599 10.928 58.0139 10.706 58.0139 10.454C58.0139 10.214 57.9719 9.998 57.8879 9.806C57.8039 9.614 57.6599 9.434 57.4559 9.266C57.2639 9.098 57.0059 8.936 56.6819 8.78C56.3699 8.624 55.9799 8.462 55.5119 8.294L54.7199 8.006C54.3719 7.886 54.0179 7.724 53.6579 7.52C53.3099 7.316 52.9919 7.07 52.7039 6.782C52.4159 6.494 52.1759 6.158 51.9839 5.774C51.8039 5.378 51.7139 4.934 51.7139 4.442C51.7139 3.938 51.8099 3.47 52.0019 3.038C52.2059 2.594 52.4879 2.21 52.8479 1.886C53.2199 1.55 53.6579 1.292 54.1619 1.112C54.6779 0.919999 55.2479 0.823999 55.8719 0.823999C56.5199 0.823999 57.0779 0.913999 57.5459 1.094C58.0259 1.262 58.4279 1.484 58.7519 1.76C59.0879 2.024 59.3579 2.318 59.5619 2.642C59.7659 2.966 59.9159 3.272 60.0119 3.56L57.8699 4.46C57.7499 4.1 57.5279 3.776 57.2039 3.488C56.8919 3.2 56.4599 3.056 55.9079 3.056C55.3799 3.056 54.9419 3.182 54.5939 3.434C54.2459 3.674 54.0719 3.992 54.0719 4.388C54.0719 4.772 54.2399 5.102 54.5759 5.378C54.9119 5.642 55.4459 5.9 56.1779 6.152L56.9879 6.422C57.5039 6.602 57.9719 6.812 58.3919 7.052C58.8239 7.28 59.1899 7.556 59.4899 7.88C59.8019 8.204 60.0359 8.576 60.1919 8.996C60.3599 9.404 60.4439 9.878 60.4439 10.418C60.4439 11.09 60.3059 11.672 60.0299 12.164C59.7659 12.644 59.4239 13.04 59.0039 13.352C58.5839 13.664 58.1099 13.898 57.5819 14.054C57.0539 14.21 56.5379 14.288 56.0339 14.288ZM68.5474 14.288C67.5874 14.288 66.6934 14.114 65.8654 13.766C65.0494 13.418 64.3414 12.944 63.7414 12.344C63.1414 11.732 62.6674 11.018 62.3194 10.202C61.9834 9.374 61.8154 8.492 61.8154 7.556C61.8154 6.62 61.9834 5.744 62.3194 4.928C62.6674 4.1 63.1414 3.386 63.7414 2.786C64.3414 2.174 65.0494 1.694 65.8654 1.346C66.6934 0.997999 67.5874 0.823999 68.5474 0.823999C69.5074 0.823999 70.3954 0.997999 71.2114 1.346C72.0394 1.694 72.7534 2.174 73.3534 2.786C73.9534 3.386 74.4214 4.1 74.7574 4.928C75.1054 5.744 75.2794 6.62 75.2794 7.556C75.2794 8.492 75.1054 9.374 74.7574 10.202C74.4214 11.018 73.9534 11.732 73.3534 12.344C72.7534 12.944 72.0394 13.418 71.2114 13.766C70.3954 14.114 69.5074 14.288 68.5474 14.288ZM68.5474 11.984C69.1474 11.984 69.7054 11.876 70.2214 11.66C70.7494 11.444 71.2054 11.144 71.5894 10.76C71.9854 10.376 72.2914 9.914 72.5074 9.374C72.7354 8.822 72.8494 8.216 72.8494 7.556C72.8494 6.896 72.7354 6.296 72.5074 5.756C72.2914 5.204 71.9854 4.736 71.5894 4.352C71.2054 3.968 70.7494 3.668 70.2214 3.452C69.7054 3.236 69.1474 3.128 68.5474 3.128C67.9474 3.128 67.3834 3.236 66.8554 3.452C66.3394 3.668 65.8834 3.968 65.4874 4.352C65.1034 4.736 64.7974 5.204 64.5694 5.756C64.3534 6.296 64.2454 6.896 64.2454 7.556C64.2454 8.216 64.3534 8.822 64.5694 9.374C64.7974 9.914 65.1034 10.376 65.4874 10.76C65.8834 11.144 66.3394 11.444 66.8554 11.66C67.3834 11.876 67.9474 11.984 68.5474 11.984ZM81.9622 14.288C81.2062 14.288 80.5162 14.168 79.8922 13.928C79.2802 13.676 78.7582 13.316 78.3262 12.848C77.8942 12.38 77.5582 11.816 77.3182 11.156C77.0782 10.484 76.9582 9.722 76.9582 8.87V1.112H79.3882V9.014C79.3882 9.446 79.4422 9.842 79.5502 10.202C79.6582 10.562 79.8202 10.874 80.0362 11.138C80.2522 11.402 80.5222 11.612 80.8462 11.768C81.1702 11.912 81.5422 11.984 81.9622 11.984C82.3942 11.984 82.7722 11.912 83.0962 11.768C83.4202 11.612 83.6902 11.402 83.9062 11.138C84.1222 10.874 84.2842 10.562 84.3922 10.202C84.5002 9.842 84.5542 9.446 84.5542 9.014V1.112H86.9842V8.87C86.9842 9.674 86.8642 10.412 86.6242 11.084C86.3962 11.744 86.0602 12.314 85.6162 12.794C85.1842 13.262 84.6562 13.628 84.0322 13.892C83.4202 14.156 82.7302 14.288 81.9622 14.288ZM89.2872 1.112H92.1132L97.2972 9.752H97.4412L97.2972 7.268V1.112H99.7092V14H97.1532L91.6812 4.874H91.5372L91.6812 7.358V14H89.2872V1.112ZM102.295 1.112H106.651C107.671 1.112 108.589 1.268 109.405 1.58C110.221 1.892 110.917 2.336 111.493 2.912C112.069 3.476 112.507 4.154 112.807 4.946C113.119 5.738 113.275 6.608 113.275 7.556C113.275 8.516 113.119 9.392 112.807 10.184C112.507 10.976 112.069 11.654 111.493 12.218C110.917 12.782 110.221 13.22 109.405 13.532C108.589 13.844 107.671 14 106.651 14H102.295V1.112ZM106.543 11.696C107.251 11.696 107.875 11.6 108.415 11.408C108.955 11.204 109.405 10.922 109.765 10.562C110.125 10.202 110.395 9.77 110.575 9.266C110.755 8.75 110.845 8.18 110.845 7.556C110.845 6.932 110.755 6.368 110.575 5.864C110.395 5.348 110.125 4.91 109.765 4.55C109.405 4.19 108.955 3.914 108.415 3.722C107.875 3.518 107.251 3.416 106.543 3.416H104.725V11.696H106.543Z" fill="white"/>
</svg>
